<?xml version="1.0" encoding="utf-8"?>
<!-- Generator: Adobe Illustrator 21.0.0, SVG Export Plug-In . SVG Version: 6.00 Build 0)  -->
<svg version="1.1" id="Laag_1" xmlns="http://www.w3.org/2000/svg" xmlns:xlink="http://www.w3.org/1999/xlink" x="0px" y="0px"
	 viewBox="0 0 1009.4 452.6" style="enable-background:new 0 0 1009.4 452.6;" xml:space="preserve">
<style type="text/css">
	.st0{fill:#3EB500;}
	.st1{fill:#398C03;}
	.st2{fill:#F4F4F4;}
	.st3{fill:#52EA28;}
	.st4{fill:#8AFF64;}
	.st5{fill:#FFFFFF;}
</style>
<g>
	<g id="XMLID_1_">
		<g>
			<polygon class="st0" points="446.3,332.3 446.3,277.3 416.3,277.3 416.3,332.3 381.3,332.3 381.3,122.3 512.3,122.3 512.3,332.3 
							"/>
			<polygon class="st1" points="381.3,122.3 256.3,122.3 256.3,0.3 381.3,68.4 			"/>
			<rect x="256.3" y="272.3" class="st2" width="60" height="60"/>
			<polygon class="st1" points="316.3,332.3 316.3,272.3 256.3,272.3 256.3,122.3 381.3,122.3 381.3,332.3 			"/>
			<path class="st3" d="M391.3,422.3v-30h-30v30H391.3z M421.3,392.3v30h30v-30H421.3z M512.3,452.3h-256v-30h15v-30h-15v-30h256v30
				h-31v30h31V452.3z M331.3,422.3v-30h-30v30H331.3z"/>
			<polygon class="st3" points="256.3,122.3 131.3,122.3 131.3,68.4 256.3,0.3 			"/>
			<polygon class="st3" points="131.3,122.3 256.3,122.3 256.3,272.3 196.3,272.3 196.3,332.3 131.3,332.3 			"/>
			<polygon class="st4" points="66.3,332.3 0.3,332.3 0.3,122.3 131.3,122.3 131.3,332.3 96.3,332.3 96.3,277.3 66.3,277.3 			"/>
			<path class="st4" d="M151.3,422.3v-30h-30v30H151.3z M211.3,422.3v-30h-30v30H211.3z M256.3,452.3H0.3v-30h31v-30h-31v-30h256v30
				h-15v30h15V452.3z M61.3,392.3v30h30v-30H61.3z"/>
		</g>
		<g>
		</g>
	</g>
</g>
<polygon class="st2" points="212.2,128.6 256.3,59.3 300.2,128.6 256.3,109.3 "/>
<polygon class="st2" points="256.3,118.3 212.2,138.3 256.3,164.3 300.2,138.3 "/>
<polygon class="st2" points="212.2,149.3 256.3,212.3 300.2,149.3 256.3,173.3 "/>
<g>
	<path class="st5" d="M609.1,314.9h-11.6l-27.3-78.5v78.5h-10.5V151.5h10.5v73.4l24.8-73.4h11.4v0.9l-26.8,77.8L609.1,314.9z"/>
	<path class="st5" d="M708,303.3c0,3.4-0.8,6.2-2.4,8.4c-1.6,2.2-3.6,3.2-6.1,3.2h-33.1c-2.5,0-4.5-1.1-6.1-3.2
		c-1.6-2.2-2.3-4.9-2.3-8.4V163.1c0-3.4,0.8-6.2,2.3-8.4c1.6-2.2,3.6-3.2,6.1-3.2h33.1c2.5,0,4.5,1.1,6.1,3.2
		c1.6,2.2,2.4,4.9,2.4,8.4V303.3z M697.5,302.1V164.3h-29v137.8H697.5z"/>
	<path class="st5" d="M806.4,164.3h-18.3v150.6h-10.5V164.3h-18.5v-12.8h47.3V164.3z"/>
	<path class="st5" d="M898.2,164.3h-18.3v150.6h-10.5V164.3h-18.5v-12.8h47.3V164.3z"/>
	<path class="st5" d="M960.4,314.9h-10.5V151.5h10.5V314.9z"/>
</g>
</svg>
